<?xml version="1.0" encoding="utf-8"?>
<!-- Generator: Adobe Illustrator 21.1.0, SVG Export Plug-In . SVG Version: 6.00 Build 0)  -->
<svg version="1.1" id="图层_1" xmlns="http://www.w3.org/2000/svg" xmlns:xlink="http://www.w3.org/1999/xlink" x="0px" y="0px"
	 viewBox="0 0 500 150" style="enable-background:new 0 0 500 150;" xml:space="preserve">
<style type="text/css">
	.st0{fill:#4DBA87;}
</style>
<g>
	<path d="M35,27.2V39c3.9-4.7,8-8.2,12.4-10.6c4.4-2.4,9.6-3.5,15.7-3.5c6.4,0,12.3,1.5,17.7,4.5c5.4,3,9.6,7.1,12.5,12.5
		c3,5.3,4.4,10.9,4.4,16.8c0,9.3-3.3,17.3-10,23.9c-6.7,6.6-14.9,9.9-24.6,9.9c-11.6,0-21-4.7-28.2-14.1v39h15.7
		c1.5,0,2.6,0.3,3.3,0.9c0.7,0.6,1,1.4,1,2.4c0,0.9-0.3,1.7-1,2.3c-0.7,0.6-1.8,0.9-3.3,0.9H19.8c-1.5,0-2.6-0.3-3.3-0.9
		c-0.7-0.6-1-1.4-1-2.4c0-1,0.3-1.8,1-2.4c0.7-0.6,1.8-0.9,3.3-0.9h8.7V33.7h-8.7c-1.5,0-2.6-0.3-3.3-0.9c-0.7-0.6-1-1.4-1-2.4
		c0-0.9,0.3-1.7,1-2.3c0.7-0.6,1.8-0.9,3.3-0.9H35z M91.2,58.6c0-7.5-2.7-13.8-8.1-19.2c-5.4-5.3-12-8-19.9-8c-7.9,0-14.5,2.7-20,8
		C37.7,44.8,35,51.2,35,58.6c0,7.5,2.7,13.9,8.2,19.2c5.5,5.3,12.1,8,20,8c7.8,0,14.4-2.7,19.8-8C88.4,72.5,91.2,66.1,91.2,58.6z"/>
	<path d="M176.4,94v-9.5c-8.8,8-18.4,12-28.7,12c-6.3,0-11.1-1.7-14.4-5.2c-4.3-4.5-6.4-9.8-6.4-15.8V33.7h-8.7
		c-1.5,0-2.6-0.3-3.3-0.9c-0.7-0.6-1-1.4-1-2.4c0-0.9,0.3-1.7,1-2.3c0.7-0.6,1.8-0.9,3.3-0.9h15.2v48.4c0,4.2,1.3,7.7,4,10.4
		c2.7,2.7,6,4.1,10,4.1c10.5,0,20.2-4.8,29-14.5V33.7h-12c-1.5,0-2.6-0.3-3.3-0.9c-0.7-0.6-1-1.4-1-2.4c0-0.9,0.3-1.7,1-2.3
		c0.7-0.6,1.8-0.9,3.3-0.9h18.4v60.3h5.5c1.5,0,2.6,0.3,3.3,0.9c0.7,0.6,1,1.4,1,2.4c0,0.9-0.3,1.7-1,2.3c-0.7,0.6-1.8,0.9-3.3,0.9
		H176.4z"/>
	<path d="M224.6,27.2V39c3.9-4.7,8-8.2,12.4-10.6c4.4-2.4,9.6-3.5,15.7-3.5c6.4,0,12.3,1.5,17.7,4.5c5.4,3,9.6,7.1,12.5,12.5
		c3,5.3,4.4,10.9,4.4,16.8c0,9.3-3.3,17.3-10,23.9c-6.7,6.6-14.9,9.9-24.6,9.9c-11.6,0-21-4.7-28.2-14.1v39h15.7
		c1.5,0,2.6,0.3,3.3,0.9c0.7,0.6,1,1.4,1,2.4c0,0.9-0.3,1.7-1,2.3c-0.7,0.6-1.8,0.9-3.3,0.9h-30.9c-1.5,0-2.6-0.3-3.3-0.9
		c-0.7-0.6-1-1.4-1-2.4c0-1,0.3-1.8,1-2.4c0.7-0.6,1.8-0.9,3.3-0.9h8.7V33.7h-8.7c-1.5,0-2.6-0.3-3.3-0.9c-0.7-0.6-1-1.4-1-2.4
		c0-0.9,0.3-1.7,1-2.3c0.7-0.6,1.8-0.9,3.3-0.9H224.6z M280.8,58.6c0-7.5-2.7-13.8-8.1-19.2c-5.4-5.3-12-8-19.9-8
		c-7.9,0-14.5,2.7-20,8c-5.5,5.3-8.2,11.7-8.2,19.1c0,7.5,2.7,13.9,8.2,19.2c5.5,5.3,12.1,8,20,8c7.8,0,14.4-2.7,19.8-8
		C278.1,72.5,280.8,66.1,280.8,58.6z"/>
</g>
<g>
	<path class="st0" d="M321,27.2V39c3.9-4.7,8-8.2,12.4-10.6c4.4-2.4,9.6-3.5,15.7-3.5c6.4,0,12.3,1.5,17.7,4.5
		c5.4,3,9.6,7.1,12.5,12.5c3,5.3,4.4,10.9,4.4,16.8c0,9.3-3.3,17.3-10,23.9c-6.7,6.6-14.9,9.9-24.6,9.9c-11.6,0-21-4.7-28.2-14.1v39
		h15.7c1.5,0,2.6,0.3,3.3,0.9c0.7,0.6,1,1.4,1,2.4c0,0.9-0.3,1.7-1,2.3c-0.7,0.6-1.8,0.9-3.3,0.9h-30.9c-1.5,0-2.6-0.3-3.3-0.9
		c-0.7-0.6-1-1.4-1-2.4c0-1,0.3-1.8,1-2.4c0.7-0.6,1.8-0.9,3.3-0.9h8.7V33.7h-8.7c-1.5,0-2.6-0.3-3.3-0.9c-0.7-0.6-1-1.4-1-2.4
		c0-0.9,0.3-1.7,1-2.3c0.7-0.6,1.8-0.9,3.3-0.9H321z M377.2,58.6c0-7.5-2.7-13.8-8.1-19.2c-5.4-5.3-12-8-19.9-8
		c-7.9,0-14.5,2.7-20,8c-5.5,5.3-8.2,11.7-8.2,19.1c0,7.5,2.7,13.9,8.2,19.2c5.5,5.3,12.1,8,20,8c7.8,0,14.4-2.7,19.8-8
		C374.4,72.5,377.2,66.1,377.2,58.6z"/>
	<path class="st0" d="M440.6,94l-30.1-60.3h-1.9c-1.5,0-2.6-0.3-3.3-0.9c-0.7-0.6-1-1.4-1-2.3c0-0.7,0.2-1.3,0.5-1.8
		c0.3-0.5,0.8-0.9,1.3-1.2c0.5-0.2,1.4-0.3,2.5-0.3h17.7c1.5,0,2.6,0.3,3.3,0.9c0.7,0.6,1,1.4,1,2.4c0,0.9-0.3,1.7-1,2.3
		c-0.7,0.6-1.8,0.9-3.3,0.9h-8.7l26.5,53.2l26.1-53.2h-8.7c-1.5,0-2.6-0.3-3.3-0.9c-0.7-0.6-1-1.4-1-2.4c0-0.9,0.3-1.7,1-2.3
		c0.7-0.6,1.8-0.9,3.3-0.9h17.7c1.6,0,2.7,0.3,3.4,0.9c0.7,0.6,1,1.4,1,2.4c0,0.7-0.2,1.3-0.6,1.9c-0.4,0.6-0.9,0.9-1.4,1.1
		c-0.5,0.2-2,0.3-4.3,0.3l-41,83.6h10.1c1.5,0,2.6,0.3,3.3,0.9c0.7,0.6,1,1.4,1,2.4c0,0.9-0.3,1.7-1,2.3c-0.7,0.6-1.8,0.9-3.3,0.9
		h-37.3c-1.5,0-2.6-0.3-3.3-0.9c-0.7-0.6-1-1.4-1-2.4c0-1,0.3-1.8,1-2.4c0.7-0.6,1.8-0.9,3.3-0.9h20.3L440.6,94z"/>
</g>
</svg>
